<?xml version="1.0" standalone="no"?>
<!DOCTYPE svg PUBLIC "-//W3C//DTD SVG 20010904//EN"
 "http://www.w3.org/TR/2001/REC-SVG-20010904/DTD/svg10.dtd">
<svg version="1.0" xmlns="http://www.w3.org/2000/svg"
 width="260.000000pt" height="260.000000pt" viewBox="0 0 260.000000 260.000000"
 preserveAspectRatio="xMidYMid meet">
<metadata>
Created by potrace 1.11, written by Peter Selinger 2001-2013
</metadata>
<g transform="translate(0.000000,260.000000) scale(0.100000,-0.100000)"
fill="#000000" stroke="none">
<path d="M845 2594 c-11 -2 -45 -9 -75 -15 -120 -23 -306 -104 -357 -155 -8
-7 -19 -14 -25 -14 -18 0 -185 -176 -224 -236 -75 -116 -128 -250 -152 -384
-11 -56 -10 -299 0 -316 3 -5 9 -26 12 -48 16 -98 71 -224 149 -339 39 -59
165 -197 178 -197 5 0 20 -11 34 -24 61 -57 234 -141 340 -165 28 -6 61 -14
75 -17 14 -4 80 -8 147 -9 192 -5 355 38 518 137 l67 40 78 -77 c46 -46 77
-84 75 -94 -2 -9 -4 -16 -5 -16 -7 0 -5 -56 2 -82 11 -42 488 -522 548 -553
126 -64 282 -11 346 118 27 54 25 163 -5 220 -26 51 -499 528 -539 544 -37 14
-72 16 -101 6 -21 -8 -33 1 -104 71 l-80 80 19 28 c73 108 124 238 149 376 13
71 13 273 0 332 -45 213 -127 368 -266 505 -82 81 -81 80 -152 128 -91 63
-219 117 -337 142 -55 12 -277 22 -315 14z"/>
</g>
</svg>
