<svg width={props.width} height={props.height} viewBox="0 0 808 518" fill="none" xmlns="http://www.w3.org/2000/svg">
<g clip-path="url(#clip0)">
<g filter="url(#filter0_d)">
<path d="M352 134.374C352 134.374 356.378 194.499 354.382 198.034C352.387 201.569 389.435 265.081 389.435 265.081L448.665 209.831C448.665 209.831 445.079 133.403 448.894 129.955C452.71 126.508 352 134.374 352 134.374Z" fill="#1B1D22"/>
</g>
<g filter="url(#filter1_d)">
<path fill-rule="evenodd" clip-rule="evenodd" d="M336.689 121.819C331.285 81.469 355.968 44.8663 393.429 39.8492C410.365 37.581 427.708 43.2893 441.52 54.0003C459.86 66.2068 472 87.4626 472 111.642C472 126.58 467.366 140.401 459.5 151.663C457.243 158.033 454.989 163.191 453.033 167.637C448.822 174.91 444.23 181.448 439.64 186.611C431.563 195.699 427.889 198.008 417.638 200.784C407.387 203.56 375.344 202.239 366.225 193.637C357.106 185.036 352.085 177.289 347.815 165.232C343.544 153.175 340.578 140.943 336.689 121.819Z" fill="#1B1D22"/>
</g>
<g filter="url(#filter2_d)">
<path d="M397.328 221.752L390.229 217.754L355.198 186.13C355.198 186.13 351.709 184.825 351.181 195.763L350.654 206.701L328.038 222.051L327 470.507L483.418 478.081L490 228.067L454.678 204.43L448.206 190.6L408.417 218.635L397.328 221.752Z" fill="#1B1D22"/>
</g>
<g filter="url(#filter3_d)">
<path d="M536.605 498.081L554 245.798C554 245.798 532.485 235.639 517.764 236.768C517.764 236.768 487.643 215.266 476.675 214.738C467.52 214.301 454.007 198.425 449.795 193.182L449.777 193.164C449.264 192.545 448.916 192.09 448.697 191.816L448.69 191.815L448.684 191.811L448.68 191.805L448.678 191.798V191.78C448.55 191.616 448.477 191.525 448.477 191.525C448.477 191.525 443.503 198.081 436.738 208.581C436.738 208.581 420.201 219.831 404.416 220.581C388.631 221.331 371.342 216.831 371.342 216.831L354.325 186.355V186.081C354.123 186.264 353.94 186.446 353.757 186.646C353.703 186.666 353.657 186.705 353.629 186.755C353.482 186.882 353.354 187.028 353.207 187.174L353.189 187.21L353.153 187.247C347.909 192.385 343.377 198.196 339.676 204.524C333.652 215.157 314.774 227.009 314.774 227.009C314.774 227.009 255.196 247.613 245.876 250.817C229.759 254.211 223.262 354.831 218 423.081L235.289 498.081H536.605Z" fill="#1B1D22"/>
</g>
<path d="M586.057 468.058C581.611 480.593 578.405 490.516 575.781 498.081H510.336L507.385 435.204C507.385 435.204 508.113 410.387 510.336 378.748C514.253 323.127 522.817 246.408 540.271 246.081L553.025 246.698C553.025 246.698 560.294 247.043 563.41 258.091C566.525 269.139 598.738 432.337 586.057 468.058Z" fill="#1B1D22"/>
<path d="M335.698 106.369C335.698 106.369 328.201 104.12 325.605 92.1251L325.605 78.6311C322.953 69.6351 325.413 63.0878 328.201 52.3927C331.97 40.3631 341.695 27.8536 347.692 24.655C358.937 18.6577 365.684 -6.0813 409.784 8.41122C412.164 9.6617 417.411 10.4114 417.411 10.4114C417.411 10.4114 423.409 11.161 426.023 11.0251C435.859 6.9442 442.459 20.4144 442.459 20.4144C442.459 20.4144 448.474 15.0386 452.196 20.2061C455.917 25.3737 471.799 24.9443 479.634 63.3512C475.368 109.023 466.14 126.61 466.14 126.61C466.14 126.61 462.553 62.988 427.363 63.3512C392.174 63.7144 345.443 64.3874 343.194 82.3794C339.446 83.8788 338.696 89.8761 335.698 106.369Z" fill="#1B1D22"/>
</g>
<defs>
<filter id="filter0_d" x="348" y="129.081" width="105" height="144" filterUnits="userSpaceOnUse" color-interpolation-filters="sRGB">
<feFlood flood-opacity="0" result="BackgroundImageFix"/>
<feColorMatrix in="SourceAlpha" type="matrix" values="0 0 0 0 0 0 0 0 0 0 0 0 0 0 0 0 0 0 127 0"/>
<feOffset dy="4"/>
<feGaussianBlur stdDeviation="2"/>
<feColorMatrix type="matrix" values="0 0 0 0 0 0 0 0 0 0 0 0 0 0 0 0 0 0 0.25 0"/>
<feBlend mode="normal" in2="BackgroundImageFix" result="effect1_dropShadow"/>
<feBlend mode="normal" in="SourceGraphic" in2="effect1_dropShadow" result="shape"/>
</filter>
<filter id="filter1_d" x="331.948" y="39.3566" width="144.052" height="170.734" filterUnits="userSpaceOnUse" color-interpolation-filters="sRGB">
<feFlood flood-opacity="0" result="BackgroundImageFix"/>
<feColorMatrix in="SourceAlpha" type="matrix" values="0 0 0 0 0 0 0 0 0 0 0 0 0 0 0 0 0 0 127 0"/>
<feOffset dy="4"/>
<feGaussianBlur stdDeviation="2"/>
<feColorMatrix type="matrix" values="0 0 0 0 0 0 0 0 0 0 0 0 0 0 0 0 0 0 0.25 0"/>
<feBlend mode="normal" in2="BackgroundImageFix" result="effect1_dropShadow"/>
<feBlend mode="normal" in="SourceGraphic" in2="effect1_dropShadow" result="shape"/>
</filter>
<filter id="filter2_d" x="323" y="186.081" width="171" height="300" filterUnits="userSpaceOnUse" color-interpolation-filters="sRGB">
<feFlood flood-opacity="0" result="BackgroundImageFix"/>
<feColorMatrix in="SourceAlpha" type="matrix" values="0 0 0 0 0 0 0 0 0 0 0 0 0 0 0 0 0 0 127 0"/>
<feOffset dy="4"/>
<feGaussianBlur stdDeviation="2"/>
<feColorMatrix type="matrix" values="0 0 0 0 0 0 0 0 0 0 0 0 0 0 0 0 0 0 0.25 0"/>
<feBlend mode="normal" in2="BackgroundImageFix" result="effect1_dropShadow"/>
<feBlend mode="normal" in="SourceGraphic" in2="effect1_dropShadow" result="shape"/>
</filter>
<filter id="filter3_d" x="214" y="186.081" width="344" height="320" filterUnits="userSpaceOnUse" color-interpolation-filters="sRGB">
<feFlood flood-opacity="0" result="BackgroundImageFix"/>
<feColorMatrix in="SourceAlpha" type="matrix" values="0 0 0 0 0 0 0 0 0 0 0 0 0 0 0 0 0 0 127 0"/>
<feOffset dy="4"/>
<feGaussianBlur stdDeviation="2"/>
<feColorMatrix type="matrix" values="0 0 0 0 0 0 0 0 0 0 0 0 0 0 0 0 0 0 0.25 0"/>
<feBlend mode="normal" in2="BackgroundImageFix" result="effect1_dropShadow"/>
<feBlend mode="normal" in="SourceGraphic" in2="effect1_dropShadow" result="shape"/>
</filter>
<clipPath id="clip0">
<rect width="807.064" height="517.116" fill="white"/>
</clipPath>
</defs>
</svg>
